# xmcd
#
# Track frame offsets: 
#        150
#        22648
#        41993
#        55311
#        70337
#        88097
#        105663
#        122178
#        144739
#        159487
#
# Disc length: 2446 seconds
#
# Revision: 0
# Processed by: cddbd v1.5.2PL0 Copyright (c) Steve Scherf et al.
# Submitted via: ExactAudioCopy v1.3
#
DISCID=89098c0a
DTITLE=The Nighthawks - Last Train To Bluesville 
DYEAR=2010
DGENRE=Blues
TTITLE0=Chicken And The Hawk
TTITLE1=Nineteen Years Old
TTITLE2=I'll Go Crazy
TTITLE3=You Don't Love Me
TTITLE4=Rainin' In My Heart
TTITLE5=Can't Be Satisfied
TTITLE6=30 Days
TTITLE7=Mighty Long Time
TTITLE8=High Temperature
TTITLE9=Rollin' And Tumblin'
EXTD=
EXTT0=
EXTT1=
EXTT2=
EXTT3=
EXTT4=
EXTT5=
EXTT6=
EXTT7=
EXTT8=
EXTT9=
PLAYORDER=
